<svg width="23" height="31" viewBox="0 0 23 31" fill="none" xmlns="http://www.w3.org/2000/svg">
<path d="M23 11.7717C23 17.9969 16.1096 30.5 11.7518 30.5C7.39402 30.5 0 17.1298 0 10.9046C0 4.67945 7.39402 0.5 11.7518 0.5C16.1096 0.5 23 5.5465 23 11.7717Z" fill="#2EC5CE"/>
<path d="M17.0245 6.54048L9.52523 9.12434C9.373 9.18013 9.24 9.29111 9.14554 9.44116C9.05108 9.5912 9.0001 9.77248 9 9.95865V17.107C8.75441 17.0374 8.50272 17.0015 8.25 16.9998C7.00781 16.9998 6 17.7835 6 18.7499C6 19.7163 7.00781 20.5 8.25 20.5C9.49219 20.5 10.5 19.7163 10.5 18.7499V12.3598L16.5 10.3089V15.3572C16.2544 15.2874 16.0027 15.2513 15.75 15.2497C14.5078 15.2497 13.5 16.0334 13.5 16.9998C13.5 17.9662 14.5078 18.7499 15.75 18.7499C16.9922 18.7499 18 17.9665 18 16.9998V7.37424C17.9999 7.23687 17.9721 7.10145 17.9188 6.97896C17.8655 6.85647 17.7882 6.75033 17.6932 6.66915C17.5982 6.58797 17.4882 6.53402 17.372 6.51166C17.2559 6.48931 17.1368 6.49918 17.0245 6.54048Z" fill="#0B0D17"/>
</svg>
