<svg width="214" height="61" viewBox="0 0 214 61" fill="none" xmlns="http://www.w3.org/2000/svg">
<g clip-path="url(#clip0_2071_2101)">
<path d="M39 27.659C39 37.4117 28.2151 57 21.3942 57C14.5732 57 3 36.0534 3 26.3006C3 16.5478 14.5732 10 21.3942 10C28.2151 10 39 17.9062 39 27.659Z" fill="#2EC5CE"/>
<path d="M26.5167 21.0301L14.7786 25.0781C14.5404 25.1655 14.3322 25.3394 14.1843 25.5745C14.0365 25.8095 13.9567 26.0936 13.9565 26.3852V37.5843C13.5721 37.4753 13.1782 37.419 12.7826 37.4163C10.8383 37.4163 9.26087 38.6442 9.26087 40.1582C9.26087 41.6722 10.8383 42.9 12.7826 42.9C14.7269 42.9 16.3043 41.6722 16.3043 40.1582V30.1471L25.6957 26.934V34.8429C25.3113 34.7335 24.9173 34.677 24.5217 34.6745C22.5774 34.6745 21 35.9023 21 37.4163C21 38.9304 22.5774 40.1582 24.5217 40.1582C26.466 40.1582 28.0435 38.9308 28.0435 37.4163V22.3363C28.0433 22.1211 27.9997 21.9089 27.9163 21.717C27.8329 21.5251 27.712 21.3589 27.5633 21.2317C27.4146 21.1045 27.2424 21.02 27.0606 20.9849C26.8788 20.9499 26.6924 20.9654 26.5167 21.0301Z" fill="#0B0D17"/>
<path d="M61.26 46.532C57.6627 46.532 55.18 45.696 53.812 44.024C52.8747 42.8587 52.406 41.2627 52.406 39.236C52.406 38.2987 52.5073 37.2727 52.71 36.158L54.04 28.558C55.2307 21.7687 59.3853 18.374 66.504 18.374C69.4427 18.374 71.672 19.0073 73.192 20.274C74.712 21.5153 75.472 23.2253 75.472 25.404C75.472 26.2907 75.3453 27.19 75.092 28.102C74.864 29.014 74.636 29.698 74.408 30.154L74.028 30.838H67.302C67.9607 29.926 68.29 28.8747 68.29 27.684C68.29 25.404 67.34 24.264 65.44 24.264C62.8813 24.264 61.3487 25.746 60.842 28.71L59.55 36.006C59.4233 36.69 59.36 37.3613 59.36 38.02C59.36 39.768 60.386 40.642 62.438 40.642C64.5153 40.642 65.8453 39.6033 66.428 37.526H63.312L64.072 33.308H74.142L73.534 36.576L73.344 37.678C72.28 43.5807 68.252 46.532 61.26 46.532ZM95.0039 40.148C95.0039 40.8067 95.3333 41.136 95.9919 41.136C96.6759 41.136 97.2459 41.0093 97.7019 40.756L97.5119 45.05C96.2959 46.038 94.9279 46.532 93.4079 46.532C90.5453 46.532 88.9873 45.43 88.7339 43.226C87.2139 45.43 85.1619 46.532 82.5779 46.532C80.0193 46.532 78.3599 45.9493 77.5999 44.784C77.0933 44.0493 76.8399 43.2133 76.8399 42.276C76.8399 41.3387 76.9159 40.4773 77.0679 39.692L79.1959 27.722H85.6559L83.8699 37.83C83.7939 38.286 83.7559 38.742 83.7559 39.198C83.7559 40.414 84.4399 41.022 85.8079 41.022C86.9479 41.022 87.8599 40.6293 88.5439 39.844L90.7099 27.722H97.1699L95.0419 39.692C95.0166 39.844 95.0039 39.996 95.0039 40.148ZM108.259 41.136C108.842 41.136 109.361 41.0093 109.817 40.756L109.627 45.05C108.436 46.038 107.081 46.532 105.561 46.532C103.256 46.532 101.761 46 101.077 44.936C100.621 44.2267 100.393 43.4793 100.393 42.694C100.393 41.8833 100.444 41.174 100.545 40.566L102.825 27.722H109.285L107.157 39.692C107.132 39.844 107.119 39.9833 107.119 40.11C107.119 40.794 107.499 41.136 108.259 41.136ZM103.585 21.528C103.585 19.9067 103.94 18.7287 104.649 17.994C105.384 17.234 106.511 16.854 108.031 16.854C110.159 16.854 111.223 17.7913 111.223 19.666C111.223 21.262 110.856 22.4273 110.121 23.162C109.412 23.8967 108.284 24.264 106.739 24.264C104.636 24.264 103.585 23.352 103.585 21.528ZM120.459 46.532C117.521 46.532 115.405 45.8733 114.113 44.556C113.151 43.5933 112.669 42.3013 112.669 40.68C112.669 40.148 112.72 39.578 112.821 38.97L115.405 24.264L122.359 21.376L121.257 27.722H131.745L130.795 33.08H120.307L119.547 37.374C119.446 37.8553 119.395 38.286 119.395 38.666C119.395 40.262 120.155 41.06 121.675 41.06C122.486 41.06 123.157 40.718 123.689 40.034C124.247 39.35 124.627 38.438 124.829 37.298H131.137C130.073 43.454 126.514 46.532 120.459 46.532ZM151.179 40.148C151.179 40.8067 151.508 41.136 152.167 41.136C152.851 41.136 153.421 41.0093 153.877 40.756L153.687 45.05C152.471 46.038 151.103 46.532 149.583 46.532C146.796 46.532 145.251 45.5187 144.947 43.492C143.68 45.5187 141.818 46.532 139.361 46.532C135.206 46.532 133.129 44.746 133.129 41.174C133.129 40.566 133.192 39.8947 133.319 39.16L134.117 34.714C134.522 32.434 135.447 30.6227 136.891 29.28C138.36 27.912 140.26 27.228 142.591 27.228C144.947 27.228 146.543 27.7727 147.379 28.862L147.569 27.722H153.345L151.217 39.692C151.192 39.844 151.179 39.996 151.179 40.148ZM139.931 38.324C139.88 38.552 139.855 38.8687 139.855 39.274C139.855 39.6793 140.045 40.0847 140.425 40.49C140.805 40.87 141.438 41.06 142.325 41.06C143.237 41.06 144.022 40.7053 144.681 39.996L145.821 33.612C145.542 32.9787 144.884 32.662 143.845 32.662C141.894 32.662 140.754 33.5993 140.425 35.474L139.931 38.324ZM174.821 31.598C174.821 32.4593 174.669 33.2953 174.365 34.106C174.086 34.9167 173.807 35.512 173.529 35.892L173.111 36.424H167.373C168.006 35.8413 168.323 35.1193 168.323 34.258C168.323 33.802 168.171 33.4347 167.867 33.156C167.588 32.852 167.195 32.7 166.689 32.7C165.827 32.7 165.08 33.1307 164.447 33.992L162.319 46H155.859L159.089 27.722H165.093L164.637 30.268C166.081 28.216 167.829 27.19 169.881 27.19C171.527 27.19 172.756 27.5827 173.567 28.368C174.403 29.1533 174.821 30.23 174.821 31.598ZM183.152 40.148C183.152 40.8067 183.482 41.136 184.14 41.136C184.824 41.136 185.394 41.0093 185.85 40.756L185.66 45.05C184.444 46.038 183.076 46.532 181.556 46.532C179.251 46.532 177.756 46 177.072 44.936C176.642 44.252 176.426 43.5047 176.426 42.694C176.426 41.8833 176.477 41.174 176.578 40.566L180.72 17.158H187.18L183.19 39.692C183.165 39.844 183.152 39.996 183.152 40.148ZM195.651 37.83C195.575 38.286 195.537 38.742 195.537 39.198C195.537 40.414 196.221 41.022 197.589 41.022C198.704 41.022 199.629 40.6293 200.363 39.844L202.491 27.722H208.951L205.607 46.608C205.05 49.8253 203.771 52.3713 201.769 54.246C199.793 56.1207 197.526 57.058 194.967 57.058C192.409 57.058 190.559 56.5893 189.419 55.652C188.305 54.7147 187.747 53.486 187.747 51.966C187.747 49.8127 189.077 47.9 191.737 46.228C190.293 45.8733 189.381 45.1513 189.001 44.062C188.773 43.454 188.659 42.77 188.659 42.01C188.659 41.25 188.723 40.4773 188.849 39.692L190.977 27.722H197.437L195.651 37.83ZM195.841 51.624C197.488 51.624 198.565 50.1293 199.071 47.14L199.451 44.936C195.93 46.5827 194.169 48.242 194.169 49.914C194.169 50.4207 194.309 50.826 194.587 51.13C194.891 51.4593 195.309 51.624 195.841 51.624Z" fill="#0B0D17"/>
</g>
<defs>
<clipPath id="clip0_2071_2101">
<rect width="214" height="61" fill="white"/>
</clipPath>
</defs>
</svg>
